<?xml version="1.0"?>
<svg xmlns="http://www.w3.org/2000/svg" xmlns:xlink="http://www.w3.org/1999/xlink" version="1.1" id="Layer_1" x="0px" y="0px" width="100%" viewBox="0 0 408 612" enable-background="new 0 0 408 612" xml:space="preserve" style="background-color:transparent;">
<path fill="#000000" opacity="1.000000" stroke="none" d=" M1.000000,247.000000   C1.000000,164.666672 1.000000,82.833336 1.000000,1.000000   C137.000000,1.000000 273.000000,1.000000 409.000000,1.000000   C409.000000,205.000000 409.000000,409.000000 409.000000,613.000000   C273.000000,613.000000 137.000000,613.000000 1.000000,613.000000   C1.000000,491.166656 1.000000,369.333344 1.000000,247.000000  M224.063614,555.483765   C224.063614,555.483765 224.132690,555.977600 224.128723,556.658569   C228.160233,559.979980 231.841995,563.900818 236.295242,566.499512   C245.904800,572.107117 255.972855,576.659790 267.144165,578.719177   C274.399170,580.056580 281.216187,579.614380 288.427490,578.419128   C299.173889,576.637878 303.552643,565.096619 294.118378,556.609314   C287.267181,550.445740 280.323242,544.380737 273.612579,538.067688   C270.814972,535.435852 267.247284,532.630432 266.302338,529.265686   C265.047638,524.798035 265.869843,519.700317 266.057922,514.883362   C266.527069,502.868561 267.142181,490.859406 267.799744,478.284393   C267.765808,477.905731 267.731842,477.527069 267.936035,476.294983   C268.296082,474.892792 268.897369,473.504578 268.979584,472.086273   C270.014832,454.225311 271.559235,436.368713 271.825653,418.493896   C272.292328,387.185852 271.966125,355.865906 271.956818,324.550964   C271.956421,323.230469 271.795197,321.910461 271.720642,320.589539   C271.121704,309.982147 270.525665,299.374573 269.928741,288.767059   C275.907806,302.863129 281.234894,317.054169 286.615326,331.224915   C289.694641,339.335205 290.301575,347.218781 287.539642,355.826935   C286.090302,360.344147 287.223053,366.005676 288.333618,370.890381   C288.860199,373.206360 291.844727,376.073975 294.135406,376.515808   C295.868347,376.850067 298.283081,373.755798 300.356720,372.139038   C300.845367,371.758057 301.182465,371.182648 302.025085,370.176086   C302.025085,374.809418 301.807739,378.653107 302.070251,382.463684   C302.620667,390.453674 305.209930,392.204071 312.810883,390.138428   C313.438354,389.967926 314.275452,390.263336 314.767853,389.951691   C317.635986,388.136078 321.098999,386.740875 323.128571,384.213806   C330.262268,375.331360 328.090424,364.856018 326.296326,355.046844   C323.880127,341.836121 320.266846,328.837616 316.987915,315.793121   C313.084686,300.265289 309.230316,284.718231 304.906525,269.305237   C301.295746,256.433807 297.038879,243.743607 293.041443,230.187408   C288.391571,216.714706 281.853699,204.418182 267.676361,199.135254   C255.798248,194.709061 243.380737,191.743393 231.280685,187.884476   C229.636566,187.360138 227.805939,185.645126 227.203400,184.050140   C226.319565,181.710510 227.840424,180.486862 230.421158,179.679245   C246.013138,174.799911 257.672638,165.119324 265.188843,150.497192   C265.922577,149.069763 267.413940,147.329636 268.812531,147.055450   C281.870911,144.495392 288.493683,128.311142 285.863281,116.652115   C284.641663,111.237312 282.459167,106.088310 275.756897,104.859245   C274.646271,104.655579 273.284271,102.540642 273.099518,101.166313   C272.466187,96.454933 272.414185,91.669228 271.943024,86.931496   C270.594513,73.371078 264.497101,61.661846 254.878860,52.684597   C243.393890,41.965054 228.848389,36.227551 213.122314,35.102558   C199.173004,34.104668 185.292618,35.000496 172.127655,40.956196   C162.047867,45.516186 153.457672,52.019756 147.140869,60.832283   C139.628265,71.313072 136.985794,83.601814 136.912216,96.492805   C136.896149,99.307945 135.652740,102.116089 134.189560,105.005798   C131.440002,106.702827 127.656212,107.754074 126.122559,110.210304   C119.961433,120.077667 122.892441,134.489243 132.208511,142.651428   C132.760025,142.783310 133.311539,142.915176 134.041183,143.571365   C134.353455,143.741821 134.665726,143.912277 135.294708,144.671600   C136.526596,145.119949 137.758484,145.568298 139.292480,146.641083   C140.195175,146.699356 141.097870,146.757629 142.467514,146.977661   C142.467514,146.977661 142.939011,147.125641 142.977493,147.778717   C143.634705,148.565750 144.291901,149.352798 144.994568,150.868973   C149.091782,159.239441 154.507004,166.588287 162.705154,171.264633   C168.126678,174.357147 174.059341,176.542160 179.599716,179.445404   C181.051285,180.206039 182.809402,182.155289 182.771011,183.511856   C182.728333,185.020203 181.053955,187.391846 179.637466,187.794037   C173.586929,189.511978 167.313751,190.430618 161.225449,192.034317   C151.694901,194.544724 142.114899,196.841171 134.070755,203.245605   C124.830620,210.602234 119.434494,220.340210 116.133034,231.258804   C111.433716,246.800415 107.231087,262.494965 102.980423,278.168671   C99.203720,292.094696 95.353752,306.012207 92.080948,320.060394   C88.693085,334.602478 85.930641,349.291138 82.955215,363.928009   C81.546082,370.859833 82.655190,377.170074 86.564949,383.346283   C89.621223,388.174255 93.516624,389.736481 98.845833,390.690430   C103.512733,391.525757 106.184586,391.290100 106.918312,386.688507   C107.756798,381.430023 107.969872,376.071808 108.473595,370.549957   C108.877449,371.117371 109.122131,371.705933 109.561058,372.036621   C111.779839,373.708191 114.039024,376.537018 116.303940,376.555725   C118.137741,376.570923 121.168510,373.415680 121.611984,371.246307   C122.612007,366.354462 122.733284,361.181824 122.474258,356.161499   C122.201393,350.873077 119.205177,345.042633 120.643188,340.469086   C126.247902,322.643524 133.139038,305.222412 139.551712,287.650879   C139.789749,287.670013 140.027802,287.689117 140.265839,287.708221   C140.265839,291.470856 140.265839,295.233490 139.854111,299.752472   C139.598740,300.334137 139.130402,300.911682 139.119003,301.498108   C138.778519,318.994049 138.483261,336.490936 138.042969,354.917206   C138.101395,368.602203 138.159805,382.287231 138.089203,396.807526   C138.121857,398.206818 138.154510,399.606140 138.017624,401.742493   C138.075409,402.491089 138.133194,403.239685 138.027542,404.913239   C138.351715,411.010437 138.709290,417.106049 138.993423,423.205109   C139.685867,438.068787 140.366501,452.933136 141.008163,467.799072   C141.405502,477.004120 141.620483,486.218048 142.103378,495.418213   C142.638672,505.616394 143.555038,515.797485 143.917526,525.999756   C144.004105,528.436523 143.203354,531.490601 141.665665,533.272827   C138.791733,536.603821 135.080917,539.213196 131.715439,542.119507   C125.995911,547.058655 119.926537,551.652344 114.637314,557.015625   C107.277878,564.478088 109.583984,575.087769 118.741562,577.857361   C130.776718,581.497314 142.646469,580.158203 154.150681,575.856689   C161.681961,573.040710 169.216919,569.903687 176.110443,565.828186   C180.776154,563.069885 186.242081,560.066650 186.116119,552.877625   C186.015717,547.146179 186.579956,541.391785 187.050064,535.664001   C188.326553,520.111084 189.709793,504.566986 191.702118,488.665405   C191.742813,487.443512 191.783508,486.221619 191.969116,484.338287   C191.921127,483.892242 191.873123,483.446198 191.977570,482.168976   C192.660522,476.497803 193.479446,470.838989 193.994781,465.152618   C194.782196,456.464050 195.274490,447.748901 196.046265,439.058746   C197.296097,424.985657 198.731354,410.929016 199.972763,396.855225   C200.867981,386.705994 201.575516,376.540192 202.508087,364.567230   C204.888367,366.481262 207.630508,367.589996 207.779953,368.977844   C209.116867,381.393555 210.052811,393.854279 210.988815,406.310577   C211.483582,412.894714 211.508408,419.519989 212.164017,426.084900   C213.254028,436.999542 214.828262,447.865784 215.920822,458.780212   C216.838470,467.947296 217.318329,477.157440 218.065887,486.342499   C219.693970,506.346313 221.352402,526.347717 223.057159,546.345093   C223.191864,547.925293 223.781967,549.466614 224.013809,551.812927   C224.070923,552.875366 224.128052,553.937744 224.063614,555.483765  z" data-index="0" style="opacity: 1; visibility: visible; fill: rgb(255, 255, 255);"/>
<path fill="#FBD5BA" opacity="1.000000" stroke="none" d=" M267.697906,477.148407   C267.731842,477.527069 267.765808,477.905731 267.349030,478.525696   C266.305206,479.826630 265.252625,480.859222 265.188538,481.949951   C264.350037,496.222534 263.763519,510.510468 262.858948,524.778381   C262.524902,530.047241 264.045044,534.230591 268.108612,537.561951   C270.036926,539.142883 271.871643,540.838196 273.745117,542.485779   C280.114716,548.087524 286.743408,553.426331 292.777161,559.369141   C298.672272,565.175415 296.769562,572.147034 288.974854,574.928345   C287.421875,575.482483 285.754150,575.725098 284.130249,576.068420   C273.723480,578.268677 263.865845,575.590881 254.463470,571.777283   C244.509232,567.739807 234.311584,563.725098 227.130493,554.515259   C226.739471,550.435913 226.324417,546.800171 226.059753,543.153564   C224.940811,527.737244 224.111145,512.295593 222.718063,496.904694   C220.696716,474.572845 218.145447,452.289276 216.072250,429.961731   C214.197998,409.776642 212.650269,389.561066 210.987000,369.356628   C210.670731,365.514832 209.026428,363.090027 204.860962,362.949982   C200.436447,362.801208 199.191559,365.496246 198.896118,369.280426   C198.003769,380.709503 197.080688,392.136566 196.091263,403.557587   C193.797073,430.039795 191.456879,456.518036 189.086487,483.330200   C189.055908,484.108826 189.074188,484.555176 189.048492,485.332977   C189.004425,486.109894 189.004349,486.555328 188.778107,487.333801   C187.029968,506.872528 185.203568,526.061218 184.126160,545.291870   C183.652298,553.750000 180.918732,560.138977 173.129913,563.802734   C165.910202,567.198853 158.768906,570.875000 151.282379,573.562317   C141.609528,577.034424 131.555374,578.127869 121.414360,575.138794   C113.286896,572.743286 111.232910,565.721436 116.985237,559.454956   C119.452324,556.767334 122.254280,554.375122 125.000473,551.958252   C131.117111,546.575134 137.760117,541.689636 143.244156,535.731995   C145.858856,532.891479 147.584763,528.042786 147.513290,524.144043   C147.303635,512.705627 145.745529,501.300049 145.158188,489.858887   C143.657669,460.629669 142.025208,431.399048 141.165497,402.147827   C140.544266,381.010345 141.079819,359.838959 141.094177,338.682678   C141.097763,333.388550 140.885223,328.085785 141.119446,322.802368   C141.471359,314.864502 142.129730,306.940216 142.736008,298.547974   C143.456131,278.840515 144.098068,259.595245 144.739990,240.349960   C144.038025,240.303421 143.336060,240.256882 142.634094,240.210358   C142.427719,242.168976 141.956161,244.141296 142.056396,246.084106   C142.955215,263.505981 139.758621,280.128296 133.044830,296.213867   C129.587967,304.496216 127.071205,313.168945 123.667984,321.476135   C118.734306,333.519135 115.040634,345.342529 119.534958,358.654449   C121.146271,363.427032 120.687164,369.537506 114.466431,374.659088   C112.520355,369.694366 110.875725,365.498657 108.787743,360.171875   C107.507751,362.746918 106.162537,364.341187 105.962814,366.067932   C105.411385,370.835205 105.556427,375.683533 104.994774,380.448944   C104.660194,383.287872 103.512794,386.031006 102.512665,389.594452   C94.723732,383.158478 98.050407,375.082214 96.508896,368.378540   C96.015068,368.441345 95.521240,368.504181 95.027412,368.566986   C95.027412,374.504242 95.027412,380.441467 95.027412,387.374329   C93.106911,385.675598 91.201736,384.462097 89.919373,382.775146   C84.107567,375.129608 85.028336,366.252167 86.648651,357.800018   C89.273407,344.108429 92.502281,330.504883 96.119934,317.037079   C104.055573,287.494263 112.097542,257.972870 120.688232,228.615967   C125.302704,212.847000 135.973251,202.289963 152.029816,197.825363   C160.995850,195.332321 170.045807,193.102859 179.137421,191.118851   C182.656769,190.350861 185.258316,188.932800 185.654984,185.345825   C186.165192,180.732208 188.838791,181.077591 192.348984,181.223190   C201.129745,181.587372 209.944672,181.734695 218.718124,181.344589   C221.846237,181.205490 223.504944,181.511673 223.966278,184.708664   C224.558075,188.809845 227.220444,190.442596 231.072433,191.211975   C238.241745,192.643951 245.375183,194.290726 252.463608,196.084946   C266.167816,199.553726 277.940948,205.930832 284.908234,218.938126   C287.173279,223.166733 288.985504,227.637909 291.045044,232.377197   C293.373108,240.233459 295.964172,247.633255 297.896790,255.201218   C306.615601,289.343323 315.316803,323.492065 323.622864,357.735809   C325.581207,365.809662 326.216339,374.347473 320.997620,381.822693   C319.549408,383.897095 317.297058,385.410126 315.413635,387.180725   C315.451691,380.348480 317.267639,374.371643 313.685364,368.671722   C312.911255,372.962067 313.416260,377.319733 312.715027,381.473755   C312.317261,383.830322 309.942657,385.853119 308.458374,388.026215   C307.287994,385.699646 305.474213,383.472198 305.096924,381.023438   C304.520294,377.280945 305.227264,373.355408 304.834839,369.565002   C304.532196,366.641815 303.377838,363.806854 302.602142,360.932678   C301.963257,360.950958 301.324371,360.969269 300.685516,360.987579   C299.975586,363.566101 299.613434,366.318573 298.439636,368.665039   C297.586151,370.371216 295.660034,371.540771 294.212158,372.949585   C293.092285,371.461060 291.061096,369.999756 291.015656,368.479095   C290.849091,362.910919 291.393799,357.324615 291.573853,351.742004   C291.731873,346.842834 292.752930,341.695709 291.622711,337.092712   C289.728790,329.379456 286.670654,321.913116 283.672180,314.517334   C274.447113,291.763733 265.846924,268.911652 267.945831,243.651672   C268.028015,242.662460 267.579102,241.629120 267.377686,240.616333   C266.095947,242.463364 265.851227,244.307465 265.913086,246.141235   C266.888855,275.066376 268.252380,303.983521 268.805878,332.916290   C269.296448,358.558868 268.996216,384.219055 268.835144,409.870178   C268.779846,418.676697 268.100586,427.479675 267.687469,436.283417   C267.103180,448.733978 266.450256,461.181763 265.992035,473.636871   C265.949829,474.784912 267.100922,475.976837 267.697906,477.148407  z" data-index="1" style="opacity: 1;"/>
<path fill="#C6927D" opacity="1.000000" stroke="none" d=" M291.004822,231.998138   C288.985504,227.637909 287.173279,223.166733 284.908234,218.938126   C277.940948,205.930832 266.167816,199.553726 252.463608,196.084946   C245.375183,194.290726 238.241745,192.643951 231.072433,191.211975   C227.220444,190.442596 224.558075,188.809845 223.966278,184.708664   C223.504944,181.511673 221.846237,181.205490 218.718124,181.344589   C209.944672,181.734695 201.129745,181.587372 192.348984,181.223190   C188.838791,181.077591 186.165192,180.732208 185.654984,185.345825   C185.258316,188.932800 182.656769,190.350861 179.137421,191.118851   C170.045807,193.102859 160.995850,195.332321 152.029816,197.825363   C135.973251,202.289963 125.302704,212.847000 120.688232,228.615967   C112.097542,257.972870 104.055573,287.494263 96.119934,317.037079   C92.502281,330.504883 89.273407,344.108429 86.648651,357.800018   C85.028336,366.252167 84.107567,375.129608 89.919373,382.775146   C91.201736,384.462097 93.106911,385.675598 95.027412,387.374329   C95.027412,380.441467 95.027412,374.504242 95.027412,368.566986   C95.521240,368.504181 96.015068,368.441345 96.508896,368.378540   C98.050407,375.082214 94.723732,383.158478 102.512665,389.594452   C103.512794,386.031006 104.660194,383.287872 104.994774,380.448944   C105.556427,375.683533 105.411385,370.835205 105.962814,366.067932   C106.162537,364.341187 107.507751,362.746918 108.787743,360.171875   C110.875725,365.498657 112.520355,369.694366 114.466431,374.659088   C120.687164,369.537506 121.146271,363.427032 119.534958,358.654449   C115.040634,345.342529 118.734306,333.519135 123.667984,321.476135   C127.071205,313.168945 129.587967,304.496216 133.044830,296.213867   C139.758621,280.128296 142.955215,263.505981 142.056396,246.084106   C141.956161,244.141296 142.427719,242.168976 142.634094,240.210358   C143.336060,240.256882 144.038025,240.303421 144.739990,240.349960   C144.098068,259.595245 143.456131,278.840515 142.440399,298.545959   C141.466354,299.002777 140.866089,298.999451 140.265839,298.996124   C140.265839,295.233490 140.265839,291.470856 140.265839,287.708221   C140.027802,287.689117 139.789749,287.670013 139.551712,287.650879   C133.139038,305.222412 126.247902,322.643524 120.643188,340.469086   C119.205177,345.042633 122.201393,350.873077 122.474258,356.161499   C122.733284,361.181824 122.612007,366.354462 121.611984,371.246307   C121.168510,373.415680 118.137741,376.570923 116.303940,376.555725   C114.039024,376.537018 111.779839,373.708191 109.561058,372.036621   C109.122131,371.705933 108.877449,371.117371 108.473595,370.549957   C107.969872,376.071808 107.756798,381.430023 106.918312,386.688507   C106.184586,391.290100 103.512733,391.525757 98.845833,390.690430   C93.516624,389.736481 89.621223,388.174255 86.564949,383.346283   C82.655190,377.170074 81.546082,370.859833 82.955215,363.928009   C85.930641,349.291138 88.693085,334.602478 92.080948,320.060394   C95.353752,306.012207 99.203720,292.094696 102.980423,278.168671   C107.231087,262.494965 111.433716,246.800415 116.133034,231.258804   C119.434494,220.340210 124.830620,210.602234 134.070755,203.245605   C142.114899,196.841171 151.694901,194.544724 161.225449,192.034317   C167.313751,190.430618 173.586929,189.511978 179.637466,187.794037   C181.053955,187.391846 182.728333,185.020203 182.771011,183.511856   C182.809402,182.155289 181.051285,180.206039 179.599716,179.445404   C174.059341,176.542160 168.126678,174.357147 162.705154,171.264633   C154.507004,166.588287 149.091782,159.239441 144.956665,150.200256   C144.258850,148.729584 143.598923,147.927612 142.939011,147.125641   C142.939011,147.125641 142.467514,146.977661 142.233612,146.534790   C141.997849,145.367920 141.995987,144.643906 142.273895,143.890106   C142.928284,143.859085 143.302872,143.857880 144.032135,143.900299   C144.624283,143.962921 144.861755,143.981903 145.285965,144.300323   C151.596573,160.862549 163.676971,170.744995 179.744766,176.082581   C191.593521,180.018616 203.768646,180.594055 216.191986,179.225174   C237.519989,176.875107 253.337280,166.803986 262.979553,147.405640   C263.649902,146.057022 264.772827,144.430084 266.057678,143.967926   C279.166962,139.252548 284.200897,131.675674 283.026459,117.967171   C282.585114,112.815536 279.362579,107.943794 274.700745,107.324928   C270.508301,106.768402 269.888306,104.726967 270.094238,101.341415   C270.205200,99.517250 270.155457,97.674706 270.053009,95.847473   C268.696503,71.650108 257.960846,53.369541 235.260757,43.776604   C215.801483,35.553207 195.736221,35.429729 175.904922,43.044033   C162.680054,48.121773 152.533325,56.951591 145.968460,69.583138   C140.680161,79.758446 139.492004,90.810181 139.874878,102.075806   C139.997726,105.690285 138.776184,107.477066 134.996338,106.624313   C134.987030,105.832436 134.980804,105.379944 134.974564,104.927452   C135.652740,102.116089 136.896149,99.307945 136.912216,96.492805   C136.985794,83.601814 139.628265,71.313072 147.140869,60.832283   C153.457672,52.019756 162.047867,45.516186 172.127655,40.956196   C185.292618,35.000496 199.173004,34.104668 213.122314,35.102558   C228.848389,36.227551 243.393890,41.965054 254.878860,52.684597   C264.497101,61.661846 270.594513,73.371078 271.943024,86.931496   C272.414185,91.669228 272.466187,96.454933 273.099518,101.166313   C273.284271,102.540642 274.646271,104.655579 275.756897,104.859245   C282.459167,106.088310 284.641663,111.237312 285.863281,116.652115   C288.493683,128.311142 281.870911,144.495392 268.812531,147.055450   C267.413940,147.329636 265.922577,149.069763 265.188843,150.497192   C257.672638,165.119324 246.013138,174.799911 230.421158,179.679245   C227.840424,180.486862 226.319565,181.710510 227.203400,184.050140   C227.805939,185.645126 229.636566,187.360138 231.280685,187.884476   C243.380737,191.743393 255.798248,194.709061 267.676361,199.135254   C281.853699,204.418182 288.391571,216.714706 292.790985,230.696396   C292.028625,231.469635 291.516724,231.733887 291.004822,231.998138  z" data-index="2" style="opacity: 1;"/>
<path fill="#C5907A" opacity="1.000000" stroke="none" d=" M291.045044,232.377197   C291.516724,231.733887 292.028625,231.469635 292.804321,231.089264   C297.038879,243.743607 301.295746,256.433807 304.906525,269.305237   C309.230316,284.718231 313.084686,300.265289 316.987915,315.793121   C320.266846,328.837616 323.880127,341.836121 326.296326,355.046844   C328.090424,364.856018 330.262268,375.331360 323.128571,384.213806   C321.098999,386.740875 317.635986,388.136078 314.767853,389.951691   C314.275452,390.263336 313.438354,389.967926 312.810883,390.138428   C305.209930,392.204071 302.620667,390.453674 302.070251,382.463684   C301.807739,378.653107 302.025085,374.809418 302.025085,370.176086   C301.182465,371.182648 300.845367,371.758057 300.356720,372.139038   C298.283081,373.755798 295.868347,376.850067 294.135406,376.515808   C291.844727,376.073975 288.860199,373.206360 288.333618,370.890381   C287.223053,366.005676 286.090302,360.344147 287.539642,355.826935   C290.301575,347.218781 289.694641,339.335205 286.615326,331.224915   C281.234894,317.054169 275.907806,302.863129 269.928741,288.767059   C270.525665,299.374573 271.121704,309.982147 271.720642,320.589539   C271.795197,321.910461 271.956421,323.230469 271.956818,324.550964   C271.966125,355.865906 272.292328,387.185852 271.825653,418.493896   C271.559235,436.368713 270.014832,454.225311 268.979584,472.086273   C268.897369,473.504578 268.296082,474.892792 267.816956,476.721680   C267.100922,475.976837 265.949829,474.784912 265.992035,473.636871   C266.450256,461.181763 267.103180,448.733978 267.687469,436.283417   C268.100586,427.479675 268.779846,418.676697 268.835144,409.870178   C268.996216,384.219055 269.296448,358.558868 268.805878,332.916290   C268.252380,303.983521 266.888855,275.066376 265.913086,246.141235   C265.851227,244.307465 266.095947,242.463364 267.377686,240.616333   C267.579102,241.629120 268.028015,242.662460 267.945831,243.651672   C265.846924,268.911652 274.447113,291.763733 283.672180,314.517334   C286.670654,321.913116 289.728790,329.379456 291.622711,337.092712   C292.752930,341.695709 291.731873,346.842834 291.573853,351.742004   C291.393799,357.324615 290.849091,362.910919 291.015656,368.479095   C291.061096,369.999756 293.092285,371.461060 294.212158,372.949585   C295.660034,371.540771 297.586151,370.371216 298.439636,368.665039   C299.613434,366.318573 299.975586,363.566101 300.685516,360.987579   C301.324371,360.969269 301.963257,360.950958 302.602142,360.932678   C303.377838,363.806854 304.532196,366.641815 304.834839,369.565002   C305.227264,373.355408 304.520294,377.280945 305.096924,381.023438   C305.474213,383.472198 307.287994,385.699646 308.458374,388.026215   C309.942657,385.853119 312.317261,383.830322 312.715027,381.473755   C313.416260,377.319733 312.911255,372.962067 313.685364,368.671722   C317.267639,374.371643 315.451691,380.348480 315.413635,387.180725   C317.297058,385.410126 319.549408,383.897095 320.997620,381.822693   C326.216339,374.347473 325.581207,365.809662 323.622864,357.735809   C315.316803,323.492065 306.615601,289.343323 297.896790,255.201218   C295.964172,247.633255 293.373108,240.233459 291.045044,232.377197  z" data-index="3" style="opacity: 1;"/>
<path fill="#C58F78" opacity="1.000000" stroke="none" d=" M140.059967,299.374298   C140.866089,298.999451 141.466354,299.002777 142.362213,299.008118   C142.129730,306.940216 141.471359,314.864502 141.119446,322.802368   C140.885223,328.085785 141.097763,333.388550 141.094177,338.682678   C141.079819,359.838959 140.544266,381.010345 141.165497,402.147827   C142.025208,431.399048 143.657669,460.629669 145.158188,489.858887   C145.745529,501.300049 147.303635,512.705627 147.513290,524.144043   C147.584763,528.042786 145.858856,532.891479 143.244156,535.731995   C137.760117,541.689636 131.117111,546.575134 125.000473,551.958252   C122.254280,554.375122 119.452324,556.767334 116.985237,559.454956   C111.232910,565.721436 113.286896,572.743286 121.414360,575.138794   C131.555374,578.127869 141.609528,577.034424 151.282379,573.562317   C158.768906,570.875000 165.910202,567.198853 173.129913,563.802734   C180.918732,560.138977 183.652298,553.750000 184.126160,545.291870   C185.203568,526.061218 187.029968,506.872528 189.009354,487.508545   C189.994751,487.906647 190.522736,488.463013 191.050720,489.019409   C189.709793,504.566986 188.326553,520.111084 187.050064,535.664001   C186.579956,541.391785 186.015717,547.146179 186.116119,552.877625   C186.242081,560.066650 180.776154,563.069885 176.110443,565.828186   C169.216919,569.903687 161.681961,573.040710 154.150681,575.856689   C142.646469,580.158203 130.776718,581.497314 118.741562,577.857361   C109.583984,575.087769 107.277878,564.478088 114.637314,557.015625   C119.926537,551.652344 125.995911,547.058655 131.715439,542.119507   C135.080917,539.213196 138.791733,536.603821 141.665665,533.272827   C143.203354,531.490601 144.004105,528.436523 143.917526,525.999756   C143.555038,515.797485 142.638672,505.616394 142.103378,495.418213   C141.620483,486.218048 141.405502,477.004120 141.008163,467.799072   C140.366501,452.933136 139.685867,438.068787 138.993423,423.205109   C138.709290,417.106049 138.351715,411.010437 138.298950,404.239197   C138.442612,402.711945 138.314880,401.858673 138.187164,401.005432   C138.154510,399.606140 138.121857,398.206818 138.375671,396.045654   C138.862991,381.812012 139.070724,368.340302 139.218979,354.867920   C139.222153,354.578339 138.542160,354.281250 138.180862,353.987640   C138.483261,336.490936 138.778519,318.994049 139.119003,301.498108   C139.130402,300.911682 139.598740,300.334137 140.059967,299.374298  z" data-index="4" style="opacity: 1;"/>
<path fill="#C48E78" opacity="1.000000" stroke="none" d=" M189.135345,482.997864   C191.456879,456.518036 193.797073,430.039795 196.091263,403.557587   C197.080688,392.136566 198.003769,380.709503 198.896118,369.280426   C199.191559,365.496246 200.436447,362.801208 204.860962,362.949982   C209.026428,363.090027 210.670731,365.514832 210.987000,369.356628   C212.650269,389.561066 214.197998,409.776642 216.072250,429.961731   C218.145447,452.289276 220.696716,474.572845 222.718063,496.904694   C224.111145,512.295593 224.940811,527.737244 226.059753,543.153564   C226.324417,546.800171 226.739471,550.435913 226.768555,554.528442   C225.971115,554.983521 225.490479,554.986816 225.006256,554.638794   C224.721924,553.200256 224.441162,552.113098 224.160416,551.026001   C223.781967,549.466614 223.191864,547.925293 223.057159,546.345093   C221.352402,526.347717 219.693970,506.346313 218.065887,486.342499   C217.318329,477.157440 216.838470,467.947296 215.920822,458.780212   C214.828262,447.865784 213.254028,436.999542 212.164017,426.084900   C211.508408,419.519989 211.483582,412.894714 210.988815,406.310577   C210.052811,393.854279 209.116867,381.393555 207.779953,368.977844   C207.630508,367.589996 204.888367,366.481262 202.508087,364.567230   C201.575516,376.540192 200.867981,386.705994 199.972763,396.855225   C198.731354,410.929016 197.296097,424.985657 196.046265,439.058746   C195.274490,447.748901 194.782196,456.464050 193.994781,465.152618   C193.479446,470.838989 192.660522,476.497803 191.563766,482.584473   C190.478424,482.999298 189.806870,482.998566 189.135345,482.997864  z" data-index="5" style="opacity: 1;"/>
<path fill="#C5907C" opacity="1.000000" stroke="none" d=" M225.009857,554.990173   C225.490479,554.986816 225.971115,554.983521 226.813690,554.967041   C234.311584,563.725098 244.509232,567.739807 254.463470,571.777283   C263.865845,575.590881 273.723480,578.268677 284.130249,576.068420   C285.754150,575.725098 287.421875,575.482483 288.974854,574.928345   C296.769562,572.147034 298.672272,565.175415 292.777161,559.369141   C286.743408,553.426331 280.114716,548.087524 273.745117,542.485779   C271.871643,540.838196 270.036926,539.142883 268.108612,537.561951   C264.045044,534.230591 262.524902,530.047241 262.858948,524.778381   C263.763519,510.510468 264.350037,496.222534 265.188538,481.949951   C265.252625,480.859222 266.305206,479.826630 267.298523,478.807495   C267.142181,490.859406 266.527069,502.868561 266.057922,514.883362   C265.869843,519.700317 265.047638,524.798035 266.302338,529.265686   C267.247284,532.630432 270.814972,535.435852 273.612579,538.067688   C280.323242,544.380737 287.267181,550.445740 294.118378,556.609314   C303.552643,565.096619 299.173889,576.637878 288.427490,578.419128   C281.216187,579.614380 274.399170,580.056580 267.144165,578.719177   C255.972855,576.659790 245.904800,572.107117 236.295242,566.499512   C231.841995,563.900818 228.160233,559.979980 224.311279,556.193237   C224.717422,555.529053 224.881729,555.289612 224.992371,555.005493   C224.997940,555.001465 225.009857,554.990173 225.009857,554.990173  z" data-index="6"/>
<path fill="#C69581" opacity="1.000000" stroke="none" d=" M134.582062,104.966629   C134.980804,105.379944 134.987030,105.832436 134.692596,106.782280   C128.374268,110.086555 126.020035,115.083786 126.068909,121.426178   C126.122498,128.377869 129.086899,134.237991 133.020081,139.970306   C132.576004,140.904297 132.263687,141.519257 131.951355,142.134232   C122.892441,134.489243 119.961433,120.077667 126.122559,110.210304   C127.656212,107.754074 131.440002,106.702827 134.582062,104.966629  z" data-index="7"/>
<path fill="#B08576" opacity="1.000000" stroke="none" d=" M138.111908,354.452423   C138.542160,354.281250 139.222153,354.578339 139.218979,354.867920   C139.070724,368.340302 138.862991,381.812012 138.440186,395.628021   C138.159805,382.287231 138.101395,368.602203 138.111908,354.452423  z" data-index="8"/>
<path fill="#C6927D" opacity="1.000000" stroke="none" d=" M132.079926,142.392822   C132.263687,141.519257 132.576004,140.904297 133.339066,140.103088   C135.906006,141.147263 138.022202,142.377686 140.023880,143.922028   C139.603027,144.829529 139.296707,145.423080 138.990372,146.016632   C137.758484,145.568298 136.526596,145.119949 135.002869,144.153214   C134.428360,143.438904 134.145706,143.242966 133.863052,143.047043   C133.311539,142.915176 132.760025,142.783310 132.079926,142.392822  z" data-index="9"/>
<path fill="#C48E78" opacity="1.000000" stroke="none" d=" M191.376419,488.842407   C190.522736,488.463013 189.994751,487.906647 189.235519,487.175507   C189.004349,486.555328 189.004425,486.109894 189.388275,485.332428   C190.456085,485.000153 191.140137,484.999939 191.824188,484.999725   C191.783508,486.221619 191.742813,487.443512 191.376419,488.842407  z" data-index="10"/>
<path fill="#C69581" opacity="1.000000" stroke="none" d=" M139.141418,146.328857   C139.296707,145.423080 139.603027,144.829529 140.331024,143.984711   C141.166504,143.795609 141.580322,143.857758 141.994110,143.919907   C141.995987,144.643906 141.997849,145.367920 142.000137,146.453918   C141.097870,146.757629 140.195175,146.699356 139.141418,146.328857  z" data-index="11"/>
<path fill="#C58F78" opacity="1.000000" stroke="none" d=" M191.896652,484.669006   C191.140137,484.999939 190.456085,485.000153 189.432251,485.000946   C189.074188,484.555176 189.055908,484.108826 189.086487,483.330200   C189.806870,482.998566 190.478424,482.999298 191.487549,483.000061   C191.873123,483.446198 191.921127,483.892242 191.896652,484.669006  z" data-index="12"/>
<path fill="#C69581" opacity="1.000000" stroke="none" d=" M142.958252,147.452179   C143.598923,147.927612 144.258850,148.729584 144.933929,149.835693   C144.291901,149.352798 143.634705,148.565750 142.958252,147.452179  z" data-index="13"/>
<path fill="#C5907C" opacity="1.000000" stroke="none" d=" M224.087112,551.419434   C224.441162,552.113098 224.721924,553.200256 225.006256,554.638794   C225.009857,554.990173 224.997940,555.001465 224.792053,555.002197   C224.586166,555.002869 224.185165,555.000183 224.185165,555.000183   C224.128052,553.937744 224.070923,552.875366 224.087112,551.419434  z" data-index="14"/>
<path fill="#B08576" opacity="1.000000" stroke="none" d=" M138.102386,401.373962   C138.314880,401.858673 138.442612,402.711945 138.380661,403.776733   C138.133194,403.239685 138.075409,402.491089 138.102386,401.373962  z" data-index="15"/>
<path fill="#C69581" opacity="1.000000" stroke="none" d=" M133.952118,143.309204   C134.145706,143.242966 134.428360,143.438904 134.844513,143.858780   C134.665726,143.912277 134.353455,143.741821 133.952118,143.309204  z" data-index="16"/>
<path fill="#C48E78" opacity="1.000000" stroke="none" d=" M224.124390,555.241943   C224.185165,555.000183 224.586166,555.002869 224.786469,555.006226   C224.881729,555.289612 224.717422,555.529053 224.313263,555.852722   C224.132690,555.977600 224.063614,555.483765 224.124390,555.241943  z" data-index="17"/>
<path fill="#FBD6BB" opacity="1.000000" stroke="none" d=" M142.273895,143.890106   C141.580322,143.857758 141.166504,143.795609 140.445557,143.670776   C138.022202,142.377686 135.906006,141.147263 133.470810,139.784058   C129.086899,134.237991 126.122498,128.377869 126.068909,121.426178   C126.020035,115.083786 128.374268,110.086555 134.695663,107.121674   C138.776184,107.477066 139.997726,105.690285 139.874878,102.075806   C139.492004,90.810181 140.680161,79.758446 145.968460,69.583138   C152.533325,56.951591 162.680054,48.121773 175.904922,43.044033   C195.736221,35.429729 215.801483,35.553207 235.260757,43.776604   C257.960846,53.369541 268.696503,71.650108 270.053009,95.847473   C270.155457,97.674706 270.205200,99.517250 270.094238,101.341415   C269.888306,104.726967 270.508301,106.768402 274.700745,107.324928   C279.362579,107.943794 282.585114,112.815536 283.026459,117.967171   C284.200897,131.675674 279.166962,139.252548 266.057678,143.967926   C264.772827,144.430084 263.649902,146.057022 262.979553,147.405640   C253.337280,166.803986 237.519989,176.875107 216.191986,179.225174   C203.768646,180.594055 191.593521,180.018616 179.744766,176.082581   C163.676971,170.744995 151.596573,160.862549 145.170044,144.102173   C144.470734,143.688614 144.074112,143.772644 143.677475,143.856674   C143.302872,143.857880 142.928284,143.859085 142.273895,143.890106  z" data-index="18" style="opacity: 1;"/>
<path fill="#C69581" opacity="1.000000" stroke="none" d=" M144.032135,143.900299   C144.074112,143.772644 144.470734,143.688614 144.983292,143.802734   C144.861755,143.981903 144.624283,143.962921 144.032135,143.900299  z" data-index="19"/>
</svg>
